#define max_disabled_width 12
#define max_disabled_height 12
static unsigned char max_disabled_bits[] = {
   0xff, 0x0f, 0x01, 0x08, 0xff, 0x0f, 0x01, 0x08, 0x01, 0x08, 0x01, 0x08,
   0x01, 0x08, 0x01, 0x08, 0x01, 0x08, 0x01, 0x08, 0x01, 0x08, 0xff, 0x0f };
