/* XPM */
static char * title_5_inactive_xpm[] = {
"8 23 3 1",
" 	c None",
".	c #000000",
"+	c #C3C7CB",
"........",
"++++++++",
"++++++++",
"........",
"++++++++",
"++++++++",
"++++++++",
"++++++++",
"++++++++",
"++++++++",
"++++++++",
"++++++++",
"++++++++",
"++++++++",
"++++++++",
"++++++++",
"++++++++",
"++++++++",
"++++++++",
"++++++++",
"++++++++",
"++++++++",
"........"};
