/* XPM */
static char * title_1_inactive_xpm[] = {
"8 23 3 1",
" 	c None",
".	c #000000",
"+	c #C3C7CB",
"........",
"++++++++",
"++++++++",
"........",
"++++++++",
"++++++++",
"++++++++",
"++++++++",
"++++++++",
"++++++++",
"++++++++",
"++++++++",
"++++++++",
"++++++++",
"++++++++",
"++++++++",
"++++++++",
"++++++++",
"++++++++",
"++++++++",
"++++++++",
"++++++++",
"........"};
