#define close_width 18
#define close_height 18
static unsigned char close_bits[] = {
   0xff, 0xff, 0x03, 0xff, 0xff, 0x03, 0x03, 0x00, 0x03, 0x03, 0x00, 0x03,
   0x03, 0x00, 0x03, 0x03, 0x00, 0x03, 0x03, 0x00, 0x03, 0x03, 0x00, 0x03,
   0x03, 0x00, 0x03, 0x03, 0x00, 0x03, 0x03, 0x00, 0x03, 0x03, 0x00, 0x03,
   0x03, 0x00, 0x03, 0x03, 0x00, 0x03, 0x03, 0x00, 0x03, 0x03, 0x00, 0x03,
   0xff, 0xff, 0x03, 0xff, 0xff, 0x03 };
