#define iconify_width 18
#define iconify_height 18
static unsigned char iconify_bits[] = {
   0xff, 0xff, 0x03, 0xff, 0xff, 0x03, 0x03, 0x00, 0x03, 0x03, 0x00, 0x03,
   0x03, 0x00, 0x03, 0x03, 0x00, 0x03, 0xff, 0xff, 0x03, 0xff, 0xff, 0x03,
   0x03, 0x00, 0x03, 0x03, 0x00, 0x03, 0xff, 0xff, 0x03, 0xff, 0xff, 0x03,
   0x03, 0x00, 0x03, 0x03, 0x00, 0x03, 0x03, 0x00, 0x03, 0x03, 0x00, 0x03,
   0xff, 0xff, 0x03, 0xff, 0xff, 0x03 };
