#define max_width 18
#define max_height 18
static unsigned char max_bits[] = {
   0xff, 0xff, 0x03, 0xff, 0xff, 0x03, 0x03, 0x18, 0x03, 0x03, 0x18, 0x03,
   0x03, 0x18, 0x03, 0x03, 0x18, 0x03, 0x03, 0x18, 0x03, 0x03, 0x18, 0x03,
   0x03, 0x18, 0x03, 0x03, 0x18, 0x03, 0xff, 0x1f, 0x03, 0xff, 0x1f, 0x03,
   0x03, 0x00, 0x03, 0x03, 0x00, 0x03, 0x03, 0x00, 0x03, 0x03, 0x00, 0x03,
   0xff, 0xff, 0x03, 0xff, 0xff, 0x03 };
