#define close_width 11
#define close_height 6
static unsigned char close_bits[] = {
   0xff, 0x07, 0xed, 0x07, 0xf3, 0x07, 0xf3, 0x07, 0xed, 0x07, 0xff, 0x07 };
