#define desk_toggled_width 11
#define desk_toggled_height 6
static unsigned char desk_toggled_bits[] = {
   0xff, 0x07, 0xe1, 0x07, 0xed, 0x07, 0xed, 0x07, 0xe1, 0x07, 0xff, 0x07 };
