#define desk_width 11
#define desk_height 6
static unsigned char desk_bits[] = {
   0xff, 0x07, 0xe1, 0x07, 0xe1, 0x07, 0xe1, 0x07, 0xe1, 0x07, 0xff, 0x07 };
