#define iconify_width 11
#define iconify_height 6
static unsigned char iconify_bits[] = {
   0xff, 0x07, 0xff, 0x07, 0xff, 0x07, 0xff, 0x07, 0xe1, 0x07, 0xff, 0x07 };
