#define max_width 11
#define max_height 6
static unsigned char max_bits[] = {
   0xff, 0x07, 0xe1, 0x07, 0xe1, 0x07, 0xed, 0x07, 0xe1, 0x07, 0xff, 0x07 };
