#define shade_toggled_width 11
#define shade_toggled_height 6
static unsigned char shade_toggled_bits[] = {
   0xff, 0x07, 0xe1, 0x07, 0xff, 0x07, 0xff, 0x07, 0xff, 0x07, 0xff, 0x07 };
