#define max_toggled_width 12
#define max_toggled_height 12
static unsigned char max_toggled_bits[] = {
   0xfc, 0x0f, 0x04, 0x08, 0x07, 0x08, 0x05, 0x08, 0x05, 0x08, 0x05, 0x08,
   0x05, 0x08, 0x05, 0x08, 0x05, 0x08, 0xfd, 0x0f, 0x01, 0x02, 0xff, 0x03 };
