#define max_hover_width 12
#define max_hover_height 12
static unsigned char max_hover_bits[] = {
   0xfc, 0x0f, 0x04, 0x08, 0xff, 0x0b, 0x01, 0x0a, 0x01, 0x0a, 0x01, 0x0a,
   0x01, 0x0a, 0x01, 0x0a, 0x01, 0x0a, 0x01, 0x0e, 0x01, 0x02, 0xff, 0x03 };
